<svg width="24" height="33" viewBox="0 0 24 33" fill="none" xmlns="http://www.w3.org/2000/svg">
<path d="M9 17.7203C9 18.2726 8.55228 18.7203 8 18.7203C7.44771 18.7203 7 18.2726 7 17.7203V10.1345L4.70711 12.4274C4.31658 12.8179 3.68342 12.8179 3.29289 12.4274C2.90237 12.0369 2.90237 11.4037 3.29289 11.0132L7.29289 7.01318C7.68342 6.62266 8.31658 6.62266 8.70711 7.01318L12.7071 11.0132C13.0976 11.4037 13.0976 12.0369 12.7071 12.4274C12.3166 12.8179 11.6834 12.8179 11.2929 12.4274L9 10.1345V17.7203Z" fill="#8A92A6"/>
<path d="M24 28.0132V9.01318L15 0.0131836H4C1.79086 0.0131836 0 1.80404 0 4.01318V28.0132C0 30.2223 1.79086 32.0132 4 32.0132H20C22.2091 32.0132 24 30.2223 24 28.0132ZM15 6.01318C15 7.67004 16.3431 9.01318 18 9.01318H22V28.0132C22 29.1178 21.1046 30.0132 20 30.0132H4C2.89543 30.0132 2 29.1178 2 28.0132V4.01318C2 2.90861 2.89543 2.01318 4 2.01318H15V6.01318Z" fill="#8A92A6"/>
<path d="M16 17.0132C16 16.4609 15.5523 16.0132 15 16.0132C14.4477 16.0132 14 16.4609 14 17.0132V24.599L11.7071 22.3061C11.3166 21.9156 10.6834 21.9156 10.2929 22.3061C9.90237 22.6966 9.90237 23.3298 10.2929 23.7203L14.2929 27.7203C14.6834 28.1108 15.3166 28.1108 15.7071 27.7203L19.7071 23.7203C20.0976 23.3298 20.0976 22.6966 19.7071 22.3061C19.3166 21.9156 18.6834 21.9156 18.2929 22.3061L16 24.599V17.0132Z" fill="#8A92A6"/>
</svg>
